<?xml version="1.0" encoding="UTF-8"?>
<svg width="120px" height="26px" viewBox="0 0 120 26" version="1.1" xmlns="http://www.w3.org/2000/svg" xmlns:xlink="http://www.w3.org/1999/xlink">
    <!-- Generator: Sketch 51.1 (57501) - http://www.bohemiancoding.com/sketch -->
    <title>博普智库</title>
    <desc>Created with Sketch.</desc>
    <defs></defs>
    <g id="Page-1" stroke="none" stroke-width="1" fill="none" fill-rule="evenodd">
        <g id="Artboard" transform="translate(-86.000000, -204.000000)" fill="#FFFFFF">
            <path d="M86,212.814917 L86,210.096859 L88.7330747,210.096859 L88.7330747,204 L91.5562508,204 L91.5562508,210.096859 L94.2442748,210.096859 L94.2442748,212.814917 L91.5562508,212.814917 L91.5562508,229.693906 L88.7330747,229.693906 L88.7330747,212.814917 L86,212.814917 Z M94.7097985,224.01752 L94.7097985,221.764986 L109.276186,221.764986 L109.276186,220.503567 L112.084345,220.503567 L112.084345,221.764986 L113.691153,221.764986 L113.691153,224.01752 L112.084345,224.01752 L112.084345,226.330121 C112.084345,227.151049 111.914155,227.816791 111.57377,228.327368 C111.073205,229.068205 110.332379,229.438618 109.35127,229.438618 L105.747216,229.438618 L105.747216,226.930797 L107.954699,226.91578 C108.5754,226.91578 108.96083,226.800652 109.111,226.570392 C109.221124,226.390188 109.276186,226.144915 109.276186,225.834564 L109.276186,224.01752 L94.7097985,224.01752 Z M94.9500688,220.173195 L94.9500688,212.304342 C94.9500688,211.213109 95.235387,210.387188 95.8060318,209.826555 C96.356654,209.295955 97.1024856,209.030659 98.043549,209.030659 L102.72882,209.030659 L102.72882,207.76924 L94.9500688,207.76924 L94.9500688,205.411588 L102.72882,205.411588 L102.72882,204 L105.521962,204 L105.521962,205.411588 L109.756726,205.411588 L109.756726,204 L112.534852,204 L112.534852,205.411588 L113.75122,205.411588 L113.75122,207.76924 L105.521962,207.76924 L105.521962,209.030659 L109.396321,209.030659 C110.857973,209.030659 111.889122,209.260916 112.489801,209.721437 C113.210616,210.272059 113.571017,211.077957 113.571017,212.139157 L113.571017,220.173195 L110.988112,220.173195 L110.988112,218.521337 L105.521962,218.521337 L105.521962,220.308347 L102.72882,220.308347 L102.72882,218.521337 L97.5479915,218.521337 L97.5479915,220.173195 L94.9500688,220.173195 Z M97.5479915,216.343887 L102.72882,216.343887 L102.72882,214.917282 L97.5479915,214.917282 L97.5479915,216.343887 Z M97.5479915,212.664748 L102.72882,212.664748 L102.72882,211.238143 L98.8094106,211.238143 C97.9684603,211.238143 97.5479915,211.563506 97.5479915,212.214241 L97.5479915,212.664748 Z M105.521962,216.343887 L110.988112,216.343887 L110.988112,214.917282 L105.521962,214.917282 L105.521962,216.343887 Z M105.521962,212.664748 L110.988112,212.664748 L110.988112,212.304342 C110.988112,211.593539 110.467531,211.238143 109.426355,211.238143 L105.521962,211.238143 L105.521962,212.664748 Z M96.0463021,227.831811 L96.0463021,225.36904 L103.704918,225.36904 L103.704918,227.831811 L96.0463021,227.831811 Z M116.769616,216.944563 L116.769616,214.166437 L124.833688,214.166437 L124.833688,208.129646 L116.859717,208.129646 L116.859717,205.35152 L120.959329,205.35152 L120.959329,204.075084 L123.752472,204.075084 L123.752472,205.35152 L137.7332,205.35152 L137.7332,204.075084 L140.511325,204.075084 L140.511325,205.35152 L144.415718,205.35152 L144.415718,208.129646 L136.471781,208.129646 L136.471781,214.166437 L144.520836,214.166437 L144.520836,216.944563 L116.769616,216.944563 Z M127.611813,214.166437 L133.693655,214.166437 L133.693655,208.129646 L127.611813,208.129646 L127.611813,214.166437 Z M116.994869,212.244275 L116.994869,209.886622 L122.611188,209.886622 L122.611188,212.244275 L116.994869,212.244275 Z M117.190089,226.585409 L117.190089,221.479665 C117.190089,220.478533 117.445373,219.727696 117.95595,219.227131 C118.466527,218.726565 119.282437,218.476286 120.403704,218.476286 L140.406207,218.476286 C141.7277,218.476286 142.66875,218.696531 143.229383,219.137029 C143.810039,219.587538 144.100363,220.258286 144.100363,221.149293 L144.100363,226.660493 C144.100363,227.541489 143.855089,228.217242 143.364535,228.687774 C142.984105,229.058192 142.578653,229.283443 142.148167,229.363534 C141.857839,229.413591 141.422353,229.438618 140.841697,229.438618 L119.833062,229.438618 C118.942055,229.438618 118.266302,229.148295 117.805782,228.567639 C117.395318,228.037039 117.190089,227.376302 117.190089,226.585409 Z M141.307221,225.248905 L119.968214,225.248905 L119.968214,225.99975 C119.968214,226.61044 120.333622,226.91578 121.064448,226.91578 L139.790514,226.91578 C140.461272,226.91578 140.876736,226.830685 141.036917,226.660493 C141.21712,226.470278 141.307221,226.219999 141.307221,225.909648 L141.307221,225.248905 Z M119.968214,222.605932 L141.307221,222.605932 L141.307221,222.065323 C141.307221,221.414588 140.941813,221.089225 140.210987,221.089225 L121.079464,221.089225 C120.338627,221.089225 119.968214,221.414588 119.968214,222.065323 L119.968214,222.605932 Z M138.769366,212.244275 L138.769366,209.886622 L144.370667,209.886622 L144.370667,212.244275 L138.769366,212.244275 Z M147.479164,217.184833 L147.464147,214.631961 C149.69667,214.371667 151.353517,213.570774 152.434739,212.229258 L147.659367,212.229258 L147.659367,209.496183 L147.524215,209.496183 L147.524215,206.552872 C148.645482,206.222499 149.441369,205.381561 149.911901,204.030034 L152.900263,204.030034 L152.554874,205.171318 L162.135653,205.171318 L162.135653,207.949443 L156.474284,207.949443 L156.474284,209.451133 L162.135653,209.451133 L162.135653,212.229258 L157.36028,212.229258 C158.681774,213.680898 160.303582,214.466775 162.225754,214.58691 L162.225754,217.184833 C160.44374,216.914527 159.037172,216.519087 158.006007,215.998498 C156.894751,215.447876 155.903646,214.677017 155.032662,213.685897 C154.211734,214.566892 153.440875,215.212612 152.72006,215.623076 C151.368533,216.383936 149.621585,216.904516 147.479164,217.184833 Z M147.899637,209.451133 L153.320736,209.451133 L153.320736,207.949443 L150.677762,207.96446 C150.297333,208.254788 149.991992,208.475034 149.761732,208.625203 C149.361279,208.885497 148.740587,209.160804 147.899637,209.451133 Z M147.899637,226.990865 L147.899637,220.653735 C147.899637,218.841688 148.890742,217.935678 150.872982,217.935678 L171.551245,217.935678 C172.302094,217.935678 172.837691,217.990739 173.158053,218.100863 C174.259297,218.491305 174.809911,219.31222 174.809911,220.563634 L174.809911,226.630459 C174.809911,227.651613 174.559632,228.412462 174.059066,228.913027 C173.77875,229.193344 173.518459,229.37855 173.278188,229.468652 C172.887747,229.598799 172.337133,229.663872 171.62633,229.663872 L150.707796,229.663872 C149.756722,229.663872 149.035918,229.39357 148.545364,228.85296 C148.114877,228.362405 147.899637,227.741713 147.899637,226.990865 Z M172.016769,225.098736 L150.677762,225.098736 L150.677762,226.0448 C150.677762,226.615445 151.073203,226.900763 151.864097,226.900763 L170.259792,226.900763 C171.130776,226.900763 171.641346,226.82568 171.791515,226.67551 C171.941685,226.535352 172.016769,226.275061 172.016769,225.894631 L172.016769,225.098736 Z M150.677762,222.320611 L172.016769,222.320611 L172.016769,221.5998 C172.016769,220.979098 171.631339,220.668752 170.860468,220.668752 L151.638844,220.668752 C150.99812,220.668752 150.677762,220.95407 150.677762,221.524715 L150.677762,222.320611 Z M163.682393,214.376674 L163.682393,207.138531 C163.682393,206.407705 163.907644,205.807035 164.358153,205.336504 C164.848707,204.815915 165.534472,204.555625 166.415467,204.555625 L172.287073,204.555625 C173.25817,204.555625 173.993991,204.795893 174.494556,205.276436 C174.985111,205.746968 175.230384,206.36766 175.230384,207.138531 L175.230384,214.001251 C175.230384,215.062451 174.985111,215.828304 174.494556,216.298836 C173.993991,216.789391 173.443377,217.034664 172.842698,217.034664 L166.415467,217.034664 C165.584528,217.034664 164.928797,216.809413 164.448254,216.358904 C163.937677,215.878361 163.682393,215.217624 163.682393,214.376674 Z M172.452259,213.400576 L172.452259,208.324865 C172.452259,207.664119 172.136907,207.33375 171.506194,207.33375 L167.241397,207.33375 C166.690774,207.33375 166.415467,207.644097 166.415467,208.264798 L166.415467,213.400576 C166.415467,213.97122 166.690774,214.256539 167.241397,214.256539 L171.43111,214.256539 C172.111879,214.256539 172.452259,213.97122 172.452259,213.400576 Z M178.158679,229.603804 L178.158679,226.825679 C178.609188,226.815668 178.929545,226.685522 179.11976,226.43524 C179.360031,226.104866 179.480165,225.554252 179.480165,224.783381 L179.480165,209.691403 C179.480165,208.650226 179.650355,207.86435 179.99074,207.33375 C180.781633,206.132393 181.807777,205.531723 183.069203,205.531723 L191.899137,205.531723 L191.899137,204.030034 L194.692279,204.030034 L194.692279,205.531723 L206,205.531723 L206,208.309849 L184.796146,208.309849 C183.855082,208.309849 183.269429,208.384932 183.039169,208.535102 C182.73883,208.735328 182.528595,208.950568 182.40846,209.180828 C182.298335,209.391066 182.243274,209.821546 182.243274,210.472281 L182.243274,224.317858 C182.243274,226.490312 181.662626,228.007004 180.501314,228.867976 C179.880613,229.338508 179.099742,229.583782 178.158679,229.603804 Z M183.9552,226.495307 L183.9552,223.687148 L193.851333,223.687148 L193.851333,221.419597 L189.241146,221.419597 C187.539223,221.419597 186.357906,221.09924 185.697159,220.458516 C185.146537,219.917905 184.87123,219.242151 184.87123,218.431235 C184.87123,217.7805 185.006381,216.944568 185.276686,215.923414 L185.757227,214.15142 L183.9552,214.15142 L183.9552,211.373295 L186.523088,211.373295 L187.078714,209.436116 L189.916907,209.436116 L189.391315,211.373295 L206,211.373295 L206,214.15142 L188.625454,214.15142 L188.069829,216.208735 C187.959704,216.609187 187.904643,216.974595 187.904643,217.304968 C187.904643,217.62533 187.994743,217.875609 188.174947,218.055813 C188.50532,218.41622 189.216113,218.596421 190.307346,218.596421 L193.851333,218.596421 L193.851333,215.277687 L196.629458,215.277687 L196.629458,218.596421 L206,218.596421 L206,221.419597 L196.629458,221.419597 L196.629458,223.687148 L206,223.687148 L206,226.495307 L196.629458,226.495307 L196.629458,229.663872 L193.851333,229.663872 L193.851333,226.495307 L183.9552,226.495307 Z" id="博普智库"></path>
        </g>
    </g>
</svg>